<svg xmlns="http://www.w3.org/2000/svg" width="18" height="18" viewBox="0 0 18 18">
    <g data-name="PDP Wishlist CTA">
        <g data-name="Group 10899">
            <path data-name="Rectangle 6005" style="fill:none" d="M0 0h18v18H0z"/>
            <g data-name="Path 2211" style="fill:none">
                <path d="M222.635 123.1a5.221 5.221 0 0 0-3.1-3.714 4.711 4.711 0 0 0-5.691 1.71 4.819 4.819 0 0 0-5.742-1.71 5.216 5.216 0 0 0-3.094 3.714c-.4 1.792-.381 4.875 3.6 8.5l3.861 3.118a1.831 1.831 0 0 0 2.7 0l4.29-3.484c3.796-4.094 3.577-6.343 3.176-8.134z" style="stroke:none" transform="translate(-204.845 -118.232)"/>
                <path d="M217.725 120.032c-1.208 0-2.323.598-3.06 1.64l-.81 1.15-.82-1.144c-.734-1.027-1.902-1.64-3.124-1.64-.483 0-.967.094-1.438.278-1.226.481-2.178 1.631-2.484 3.003-.56 2.493.542 5.025 3.275 7.526l3.893 3.143.048.052a.829.829 0 0 0 1.238 0l.048-.051 4.287-3.482c1.567-1.703 2.51-3.168 2.882-4.477.313-1.102.171-1.944 0-2.712-.308-1.37-1.26-2.52-2.487-3.002a3.95 3.95 0 0 0-1.448-.284m0-1c.59 0 1.2.112 1.815.354 1.53.6 2.717 2.025 3.095 3.713.401 1.792.62 4.04-3.17 8.139l-4.29 3.484a1.833 1.833 0 0 1-2.702 0l-3.86-3.118c-3.98-3.63-4.002-6.713-3.6-8.505.377-1.688 1.563-3.113 3.094-3.713 2.222-.87 4.495-.033 5.742 1.71.897-1.271 2.31-2.064 3.876-2.064z" style="fill:#FFFFFF;stroke:none" transform="translate(-204.845 -118.232)"/>
            </g>
        </g>
    </g>
</svg>
